HIERARCHY
ROOT Hips
{
	OFFSET -0.001795 -0.223333 0.028219
	CHANNELS 6 Xposition Yposition Zposition Zrotation Yrotation Xrotation 
	JOINT LeftUpLeg
	{
		OFFSET 0.069520 -0.091406 -0.006815
		CHANNELS 3 Zrotation Yrotation Xrotation
		JOINT LeftLeg
		{
			OFFSET 0.034277 -0.375199 -0.004496
			CHANNELS 3 Zrotation Yrotation Xrotation
			JOINT LeftFoot
			{
				OFFSET -0.013596 -0.397961 -0.043693
				CHANNELS 3 Zrotation Yrotation Xrotation
				JOINT LeftToe
				{
					OFFSET 0.026358 -0.055791 0.119288
					CHANNELS 3 Zrotation Yrotation Xrotation
					End Site
					{
						OFFSET 0.000000 0.000000 0.000000
					}
				}
			}
		}
	}
	JOINT RightUpLeg
	{
		OFFSET -0.067670 -0.090522 -0.004320
		CHANNELS 3 Zrotation Yrotation Xrotation
		JOINT RightLeg
		{
			OFFSET -0.038290 -0.382569 -0.008850
			CHANNELS 3 Zrotation Yrotation Xrotation
			JOINT RightFoot
			{
				OFFSET 0.015774 -0.398415 -0.042312
				CHANNELS 3 Zrotation Yrotation Xrotation
				JOINT RightToe
				{
					OFFSET -0.025372 -0.048144 0.123348
					CHANNELS 3 Zrotation Yrotation Xrotation
					End Site
					{
						OFFSET 0.000000 0.000000 0.000000
					}
				}
			}
		}
	}
	JOINT Spine
	{
		OFFSET -0.002533 0.108963 -0.026696
		CHANNELS 3 Zrotation Yrotation Xrotation
		JOINT Spine1
		{
			OFFSET 0.005487 0.135180 0.001092
			CHANNELS 3 Zrotation Yrotation Xrotation
			JOINT Spine2
			{
				OFFSET 0.001457 0.052922 0.025425
				CHANNELS 3 Zrotation Yrotation Xrotation
				JOINT Neck
				{
					OFFSET -0.002778 0.213870 -0.042857
					CHANNELS 3 Zrotation Yrotation Xrotation
					JOINT Head
					{
						OFFSET 0.005152 0.064970 0.051349
						CHANNELS 3 Zrotation Yrotation Xrotation
						End Site
						{
							OFFSET 0.000000 0.000000 0.000000
						}
					}
				}
				JOINT LeftShoulder
				{
					OFFSET 0.078845 0.121749 -0.034090
					CHANNELS 3 Zrotation Yrotation Xrotation
					JOINT LeftArm
					{
						OFFSET 0.090977 0.030469 -0.008868
						CHANNELS 3 Zrotation Yrotation Xrotation
						JOINT LeftForeArm
						{
							OFFSET 0.259612 -0.012772 -0.027456
							CHANNELS 3 Zrotation Yrotation Xrotation
							JOINT LeftHand
							{
								OFFSET 0.249234 0.008986 -0.001171
								CHANNELS 3 Zrotation Yrotation Xrotation
								End Site
								{
									OFFSET 0.000000 0.000000 0.000000
								}
							}
						}
					}
				}
				JOINT RightShoulder
				{
					OFFSET -0.081759 0.118833 -0.038615
					CHANNELS 3 Zrotation Yrotation Xrotation
					JOINT RightArm
					{
						OFFSET -0.096012 0.032551 -0.009143
						CHANNELS 3 Zrotation Yrotation Xrotation
						JOINT RightForeArm
						{
							OFFSET -0.253742 -0.013329 -0.021401
							CHANNELS 3 Zrotation Yrotation Xrotation
							JOINT RightHand
							{
								OFFSET -0.255298 0.007772 -0.005559
								CHANNELS 3 Zrotation Yrotation Xrotation
								End Site
								{
									OFFSET 0.000000 0.000000 0.000000
								}
							}
						}
					}
				}
			}
		}
	}
}
MOTION
Frames: 17
Frame Time: 0.050000
0.000000 0.620072 0.000000 -1.503599 -0.323812 -17.138073 10.759284 0.087364 -57.456798 -15.043281 12.896888 87.733770 -0.265978 -6.859578 -10.424287 0.000000 0.000000 0.000000 -9.165620 1.373322 -58.365910 17.657793 -14.253114 83.167864 -2.746172 -8.694151 5.950973 0.000000 0.000000 0.000000 4.103891 -2.088556 29.821076 -1.909427 1.043943 -6.990436 -2.378079 2.800083 4.825200 7.981338 -4.039461 -13.376059 0.000000 0.000000 0.000000 -18.589506 -7.240477 1.037817 -51.810500 -7.316897 -3.165225 -5.070625 -19.085397 1.421592 0.000000 0.000000 0.000000 18.216604 1.431954 -0.205197 56.572778 7.317903 -2.567830 4.303285 23.436673 1.726700 0.000000 0.000000 0.000000 
0.000096 0.617124 -0.000017 -1.942360 -0.417494 -16.828986 11.241787 0.356711 -58.994111 -14.914291 13.021712 88.992727 -0.814365 -6.902702 -8.456194 0.000000 0.000000 0.000000 -8.225657 1.989387 -60.153734 16.772940 -13.776712 84.880028 -2.483929 -8.976655 9.040712 0.000000 0.000000 0.000000 5.173405 -2.244198 28.882785 -1.925710 1.040367 -5.540863 -3.623180 3.080610 4.852864 9.097534 -4.649670 -13.784746 0.000000 0.000000 0.000000 -18.487818 -7.492188 1.029401 -51.786578 -8.571178 -2.560337 -4.542759 -19.561610 1.343567 0.000000 0.000000 0.000000 18.760950 0.688128 -0.473926 57.973074 6.819040 -2.859862 3.756263 25.942450 1.882315 0.000000 0.000000 0.000000 
0.000285 0.616354 -0.000170 -1.323681 -0.618163 -16.883872 11.054948 0.356823 -59.251096 -15.228234 13.586700 89.116454 -0.947470 -6.438812 -7.305336 0.000000 0.000000 0.000000 -9.088558 1.607690 -60.363823 17.296353 -14.195422 84.949607 -2.248477 -8.620169 9.467126 0.000000 0.000000 0.000000 5.100462 -2.186366 28.696213 -1.893629 1.017483 -4.963649 -3.940294 3.039602 4.452331 7.994762 -3.962011 -13.463582 0.000000 0.000000 0.000000 -18.791742 -8.143789 1.354742 -51.446003 -8.236224 -2.646752 -3.974119 -17.807368 1.144536 0.000000 0.000000 0.000000 19.621662 1.080314 -0.349073 56.400068 7.645169 -2.389640 3.671247 24.319447 1.697160 0.000000 0.000000 0.000000 
0.000356 0.616266 -0.000429 -1.146008 -1.689293 -16.700039 11.385944 0.951860 -59.356161 -14.952879 13.767863 89.284503 -0.970340 -6.310005 -7.018891 0.000000 0.000000 0.000000 -8.473862 2.395935 -60.975099 17.121471 -13.651722 85.219919 -2.171751 -8.563174 9.851904 0.000000 0.000000 0.000000 4.674101 -2.015503 28.806542 -2.047234 1.065041 -5.290513 -3.305248 3.484049 4.470587 7.273328 -3.740239 -12.059411 0.000000 0.000000 0.000000 -18.073721 -7.274168 1.031655 -52.688835 -8.551260 -2.635485 -4.860162 -18.157908 1.310130 0.000000 0.000000 0.000000 18.877991 1.150329 -0.334144 56.009584 7.384707 -2.487534 5.612936 24.419114 2.079974 0.000000 0.000000 0.000000 
0.000386 0.616836 -0.000896 -0.947156 -1.992108 -16.906848 11.016871 0.848245 -58.571019 -14.555489 13.382402 88.929975 -0.570159 -6.278588 -8.456936 0.000000 0.000000 0.000000 -8.703733 2.371039 -60.747921 17.485927 -13.821393 84.978076 -2.072255 -8.411592 10.020899 0.000000 0.000000 0.000000 4.127258 -1.900970 29.315652 -1.999110 1.037563 -5.069878 -2.877872 3.561119 4.019860 7.258152 -3.778143 -11.817377 0.000000 0.000000 0.000000 -18.719547 -7.435784 1.086017 -51.863522 -8.257651 -2.667016 -5.873737 -17.772135 1.437982 0.000000 0.000000 0.000000 18.630491 1.402071 -0.254680 56.464109 7.507781 -2.386761 5.453375 23.956146 1.986251 0.000000 0.000000 0.000000 
0.000406 0.617158 -0.001346 -1.230924 -1.770764 -17.112761 11.015336 0.747046 -58.448423 -14.411288 13.090847 89.028799 -0.656795 -6.473525 -8.412870 0.000000 0.000000 0.000000 -8.410136 2.440565 -60.737138 17.231238 -13.728562 85.245296 -1.987146 -8.507261 11.029206 0.000000 0.000000 0.000000 4.368234 -1.977972 29.385681 -1.906144 0.997438 -4.386814 -2.665773 3.082327 3.798698 6.910926 -3.649810 -11.321400 0.000000 0.000000 0.000000 -19.298475 -7.285233 1.044429 -51.932846 -8.180700 -2.690739 -5.595063 -18.346198 1.447447 0.000000 0.000000 0.000000 18.778383 1.643200 -0.230372 56.044481 7.368342 -2.406574 5.936570 23.960124 2.055175 0.000000 0.000000 0.000000 
0.000405 0.618487 -0.001821 -1.207982 -1.710497 -17.106046 10.897678 0.657264 -58.208513 -14.368804 12.951865 88.705314 -0.600254 -6.485575 -8.644652 0.000000 0.000000 0.000000 -8.365759 2.441430 -60.660910 17.088479 -13.572068 85.147524 -1.918591 -8.446286 11.306821 0.000000 0.000000 0.000000 4.414304 -1.991082 29.358920 -1.888497 0.990871 -4.551582 -2.656946 3.010851 4.238140 7.080413 -3.734155 -11.627105 0.000000 0.000000 0.000000 -19.512033 -7.353199 1.095787 -51.542304 -8.114729 -2.734628 -5.858095 -18.552250 1.510847 0.000000 0.000000 0.000000 18.897652 1.561735 -0.274437 56.086384 7.459297 -2.410078 5.809297 24.432614 2.082257 0.000000 0.000000 0.000000 
0.000323 0.618820 -0.002276 -1.237168 -1.556467 -17.179822 10.940270 0.625796 -58.253498 -14.499342 13.020188 88.681290 -0.730602 -6.497632 -8.181924 0.000000 0.000000 0.000000 -8.141908 2.517855 -60.725019 16.684288 -13.265415 85.423590 -1.851238 -8.435769 11.765660 0.000000 0.000000 0.000000 4.326484 -1.988873 29.390521 -1.731654 0.920227 -4.584356 -2.593539 2.922868 4.413564 7.006284 -3.638462 -11.927012 0.000000 0.000000 0.000000 -19.439324 -7.547778 1.216414 -51.565971 -7.782356 -2.903087 -5.813515 -19.411150 1.576887 0.000000 0.000000 0.000000 19.093327 1.643797 -0.241715 55.923916 7.404252 -2.455027 5.790685 24.736189 2.108453 0.000000 0.000000 0.000000 
0.000232 0.618933 -0.002770 -1.223438 -1.343213 -17.206243 10.946383 0.557165 -58.317100 -14.683871 13.128143 88.590068 -0.802034 -6.478559 -7.895271 0.000000 0.000000 0.000000 -8.097430 2.470670 -60.740934 16.434591 -13.097536 85.551557 -1.826855 -8.422372 11.884973 0.000000 0.000000 0.000000 4.213956 -1.981832 29.402988 -1.620826 0.870336 -4.262186 -2.444124 2.642600 3.987958 6.932530 -3.552678 -12.176897 0.000000 0.000000 0.000000 -19.687966 -7.540754 1.233195 -51.268636 -7.856339 -2.820438 -6.185589 -19.443948 1.644928 0.000000 0.000000 0.000000 19.062764 1.947469 -0.148381 55.697390 7.108363 -2.534681 5.756690 24.945908 2.101660 0.000000 0.000000 0.000000 
0.000144 0.619467 -0.003234 -1.255178 -1.243171 -17.307946 10.906908 0.495420 -58.240596 -14.675774 13.053473 88.544971 -0.872822 -6.511114 -7.681970 0.000000 0.000000 0.000000 -8.018461 2.466948 -60.568421 16.207972 -12.993310 86.022863 -1.653277 -7.735899 10.580480 0.000000 0.000000 0.000000 4.064335 -1.974198 29.612708 -1.543349 0.839092 -4.624349 -2.242327 2.636887 4.282408 6.947486 -3.490607 -12.672559 0.000000 0.000000 0.000000 -19.810246 -7.779626 1.363234 -51.061436 -7.731948 -2.890478 -6.337030 -19.609240 1.688062 0.000000 0.000000 0.000000 19.367556 2.315626 0.039956 55.350477 7.062058 -2.589058 5.525735 25.115188 2.071678 0.000000 0.000000 0.000000 
0.000091 0.619829 -0.003594 -1.298270 -1.215849 -17.394984 10.912088 0.485678 -58.162274 -14.650904 12.996848 88.522796 -0.923683 -6.548627 -7.549893 0.000000 0.000000 0.000000 -7.938770 2.488029 -60.362158 15.876666 -12.477825 85.303619 -0.880334 -6.725575 12.200522 0.000000 0.000000 0.000000 3.999175 -1.967510 29.666178 -1.526095 0.829428 -4.467899 -2.214891 2.617884 4.079993 7.022929 -3.523128 -12.750729 0.000000 0.000000 0.000000 -19.760957 -7.950883 1.445257 -50.972884 -7.870123 -2.805572 -6.248899 -19.553591 1.665598 0.000000 0.000000 0.000000 19.337811 2.357956 0.055718 55.233040 7.080693 -2.557732 5.589115 25.072849 2.077268 0.000000 0.000000 0.000000 
0.000052 0.620102 -0.003842 -1.372086 -1.139258 -17.716782 10.874431 0.431169 -57.883708 -14.589610 12.877697 88.595270 -1.004588 -6.627308 -7.366771 0.000000 0.000000 0.000000 -7.818379 2.498434 -59.933317 15.792392 -12.404923 85.266810 -0.894559 -6.723023 12.099590 0.000000 0.000000 0.000000 3.976842 -1.978015 29.828908 -1.487169 0.811585 -4.205616 -2.224873 2.652586 3.725226 7.154856 -3.555824 -12.988760 0.000000 0.000000 0.000000 -19.656185 -8.132112 1.502241 -50.936914 -7.798385 -2.797677 -6.246149 -19.682548 1.668779 0.000000 0.000000 0.000000 19.393601 2.405332 0.084150 55.163600 6.978972 -2.579380 5.568598 25.039247 2.067684 0.000000 0.000000 0.000000 
0.000042 0.620373 -0.004038 -1.420694 -1.101291 -18.009056 10.806203 0.376194 -57.589449 -14.493396 12.738714 88.645283 -1.045029 -6.686914 -7.305849 0.000000 0.000000 0.000000 -7.673213 2.533266 -59.407708 15.690441 -12.270283 85.121974 -0.977150 -6.708531 11.515629 0.000000 0.000000 0.000000 4.074522 -2.003954 29.899764 -1.570796 0.852732 -4.100956 -2.194935 2.637805 3.707035 7.182544 -3.548027 -13.148810 0.000000 0.000000 0.000000 -19.433574 -8.241689 1.564915 -51.106449 -7.884905 -2.774615 -6.011544 -19.814972 1.638976 0.000000 0.000000 0.000000 19.312067 2.447428 0.108602 55.241679 6.903689 -2.617929 5.373723 24.920263 2.016630 0.000000 0.000000 0.000000 
0.000055 0.620392 -0.004223 -1.415855 -1.064800 -18.257592 10.688373 0.296818 -57.376654 -14.396680 12.617381 88.726270 -1.068611 -6.702026 -7.242233 0.000000 0.000000 0.000000 -7.656826 2.507596 -59.048117 15.673801 -12.239272 85.057213 -1.007130 -6.680046 11.224303 0.000000 0.000000 0.000000 4.075214 -2.012476 30.041669 -1.559241 0.848715 -3.969755 -2.256864 2.735310 3.508897 7.346576 -3.602074 -13.390400 0.000000 0.000000 0.000000 -19.310088 -8.382256 1.600940 -51.116639 -7.773810 -2.801676 -6.080012 -20.141238 1.671485 0.000000 0.000000 0.000000 19.329867 2.386593 0.096335 55.182585 6.638919 -2.730184 5.339888 24.988913 2.018959 0.000000 0.000000 0.000000 
0.000067 0.620441 -0.004434 -1.401384 -1.055776 -18.516724 10.561546 0.222614 -57.156466 -14.279222 12.484793 88.819343 -1.096533 -6.708009 -7.149084 0.000000 0.000000 0.000000 -7.589931 2.519513 -58.674995 15.604480 -12.143565 85.007458 -1.041979 -6.645294 10.882809 0.000000 0.000000 0.000000 4.111300 -2.011406 29.978622 -1.636618 0.886526 -3.887153 -2.335675 2.776566 3.424360 7.337851 -3.607390 -13.284256 0.000000 0.000000 0.000000 -19.081238 -8.412478 1.606959 -51.261629 -7.719512 -2.829457 -5.986897 -20.287026 1.663586 0.000000 0.000000 0.000000 19.221914 2.371381 0.102936 55.287592 6.331662 -2.873618 5.275096 24.896665 2.000078 0.000000 0.000000 0.000000 
0.000064 0.620287 -0.004678 -1.377421 -0.909994 -18.805727 10.477931 0.127519 -56.961624 -14.338779 12.488984 88.877009 -1.156253 -6.712240 -6.937745 0.000000 0.000000 0.000000 -7.627129 2.431747 -58.384416 15.527380 -12.119669 85.089881 -1.019844 -6.608677 10.902073 0.000000 0.000000 0.000000 4.086000 -2.026898 30.140010 -1.711996 0.925962 -3.878025 -2.376067 2.807833 3.280863 7.353957 -3.577875 -13.445431 0.000000 0.000000 0.000000 -19.073401 -8.387739 1.556730 -51.252182 -7.844541 -2.756171 -5.784183 -20.211230 1.614570 0.000000 0.000000 0.000000 19.268064 2.114428 -0.015615 55.163891 6.101023 -2.973897 5.447794 24.784385 2.028344 0.000000 0.000000 0.000000 
0.000020 0.620024 -0.004959 -1.369573 -0.735360 -19.003359 10.359559 0.004333 -56.822140 -14.358622 12.435875 88.900690 -1.155841 -6.719701 -6.951890 0.000000 0.000000 0.000000 -7.607952 2.371831 -58.167757 15.368426 -12.024047 85.177545 -1.036942 -6.594908 10.742732 0.000000 0.000000 0.000000 4.104865 -2.046759 30.197007 -1.738233 0.944420 -4.082074 -2.411227 2.726245 3.396582 7.269220 -3.514742 -13.514540 0.000000 0.000000 0.000000 -19.192041 -8.243446 1.477246 -51.291562 -7.856394 -2.766213 -5.583828 -20.280429 1.585161 0.000000 0.000000 0.000000 19.175696 2.005931 -0.065473 55.210832 5.954432 -3.057515 5.419672 24.435949 1.991736 0.000000 0.000000 0.000000 
